# xmcd
#
# Track frame offsets:
#	150
#	9354
#	25922
#	30579
#	45678
#	47896
#	64889
#	71639
#	88340
#	98010
#	107677
#	161588
#	176241
#	177857
#
# Disc length: 2561 seconds
# Revision: 0
# Processed by: cddbd v1.5.2PL0 Copyright (c) Steve Scherf et al.
# Submitted via: dBpowerAMP V12.0
#
DISCID=b809ff0e
DTITLE=Benny Berry - Bugle Aann
DYEAR=1900
DGENRE=Country
TTITLE0=Intro to Bugle Ann
TTITLE1=Bugle Ann
TTITLE2=Intro to Pickin' Wildflowers
TTITLE3=Pickin' Wildflowers
TTITLE4=Intro to There Goes the Farm
TTITLE5=There Goes the Farm
TTITLE6=Intro to Too Old to Die Young
TTITLE7=Too Old to Die Young
TTITLE8=Intro to Jesus on the Radio
TTITLE9=Jesus on the Radio
TTITLE10=Benny's Testimony
TTITLE11=All That Matters Anymore
TTITLE12=Intro to Give My Heart to You
TTITLE13=Give My Heart to You
EXTD=
EXTT0=
EXTT1=
EXTT2=
EXTT3=
EXTT4=
EXTT5=
EXTT6=
EXTT7=
EXTT8=
EXTT9=
EXTT10=
EXTT11=
EXTT12=
EXTT13=
PLAYORDER=
